# xmcd
#
# Track frame offsets:
#	200
#	19210
#	34250
#	51730
#	63705
#	82272
#	98695
#	113050
#	133755
#	145322
#	152997
#	160117
#	171442
#	186440
#	200975
#	221092
#	233400
#	244455
#	262222
#	285730
#	296695
#
# Disc length: 4162 seconds
# Revision: 5
# Processed by: cddbd v1.5.2PL0 Copyright (c) Steve Scherf et al.
# Submitted via: dBpowerAMP V12.0
#
DISCID=5d104015
DTITLE=Kinky Friedman And The Texas Jewboys - Old Testaments And New Revelations
DYEAR=1973
DGENRE=Country
TTITLE0=We Reserve The Right To Refuse Service To You
TTITLE1=Western Union Wire
TTITLE2=Highway Cafe
TTITLE3=Get Your Biscuits In The Oven And Your Buns In The Bed
TTITLE4=High On Jesus
TTITLE5=Sold American
TTITLE6=Ballad Of Charles Whitman
TTITLE7=Silver Eagle Express
TTITLE8=Flying Down The Freeway
TTITLE9=Why Do You Bob Your Nose, Girl? (Second Hand Nose)
TTITLE10=Old Ben Lucas
TTITLE11=Men's Room, L.A.
TTITLE12=Waitret, Please, Waitret
TTITLE13=Tramp On The Street
TTITLE14=Nashville Casualty And Life
TTITLE15=Homo Erectus
TTITLE16=Asshole From El Paso
TTITLE17=Wild Man From Borneo
TTITLE18=Ride 'Em Jewboy
TTITLE19=Schwinn Twenty-four
TTITLE20=They Ain't Makin' Jews Like Jesus Anymore
EXTD=
EXTT0=
EXTT1=
EXTT2=
EXTT3=
EXTT4=
EXTT5=
EXTT6=
EXTT7=
EXTT8=
EXTT9=
EXTT10=
EXTT11=
EXTT12=
EXTT13=
EXTT14=
EXTT15=
EXTT16=
EXTT17=
EXTT18=
EXTT19=
EXTT20=
PLAYORDER=
